<?xml version="1.0" encoding="UTF-8"?>
<svg xmlns="http://www.w3.org/2000/svg" xmlns:xlink="http://www.w3.org/1999/xlink" width="842pt" height="596pt" viewBox="0 0 842 596" version="1.1">
<g id="surface1">
<path style=" stroke:none;fill-rule:evenodd;fill:rgb(1.599121%,1.599121%,1.998901%);fill-opacity:1;" d="M 208.191406 348.941406 C 208.191406 355.640625 212.257813 362.894531 219.890625 360.925781 C 226.960938 359.101563 227.28125 351.8125 227.277344 344.347656 L 227.277344 308.269531 C 227.277344 304.742188 226.75 300.117188 229.414063 298.613281 C 230.777344 297.84375 238.859375 297.957031 240.988281 298.230469 C 253.40625 299.828125 251.761719 313.796875 251.761719 323.03125 C 251.761719 331.011719 251.777344 338.992188 251.761719 346.972656 C 251.742188 353.96875 253.585938 361.511719 261.71875 361.179688 C 269.945313 360.839844 270.753906 352.53125 270.753906 346.316406 C 270.746094 338.335938 270.75 330.355469 270.75 322.375 C 270.75 317.8125 269.949219 301.964844 271.910156 299.4375 C 273.496094 297.398438 286.582031 296.703125 291.21875 301.394531 C 296.105469 306.328125 295.199219 313.011719 295.199219 321.390625 C 295.199219 329.371094 295.199219 337.351563 295.199219 345.332031 C 295.199219 352.863281 296.128906 360.046875 303.375 361.097656 C 311.03125 362.207031 314.273438 355.355469 314.273438 348.285156 L 314.339844 310.566406 C 314.746094 302.640625 312.65625 295.632813 310.394531 290.480469 C 307.46875 285.140625 303.144531 281.640625 297.453125 279.445313 C 292.511719 277.542969 280.691406 277.421875 275.363281 278.632813 C 272.351563 279.316406 269.503906 280.523438 267.089844 282.171875 C 265.996094 282.914063 264.765625 283.964844 263.851563 284.835938 C 262.910156 285.738281 261.902344 287.191406 261.050781 287.894531 C 255.03125 281.679688 250.683594 277.90625 240.058594 277.902344 C 233.324219 277.902344 226.589844 277.902344 219.855469 277.898438 C 215.023438 278.40625 213.136719 279.808594 210.996094 281.535156 C 209.175781 283.96875 208.191406 287.277344 208.191406 291.214844 L 208.191406 348.941406 "/>
<path style=" stroke:none;fill-rule:evenodd;fill:rgb(1.599121%,1.599121%,1.998901%);fill-opacity:1;" d="M 414.351563 323.6875 C 413.003906 313.796875 417.144531 300.898438 425.460938 298.523438 C 427.953125 297.8125 431.132813 298.132813 433.898438 298.132813 C 444.765625 298.132813 443.570313 297.167969 443.570313 316.140625 C 443.570313 344.582031 445.359375 341.863281 432.585938 341.863281 C 425.253906 341.863281 422.65625 341.582031 419.136719 337.148438 C 416.269531 333.53125 415.097656 329.179688 414.351563 323.6875 Z M 421.625 393.21875 L 430.4375 393.21875 C 432.792969 392.222656 449.34375 392.6875 457.992188 376.28125 C 464.296875 364.332031 462.90625 351.238281 462.90625 336.476563 C 462.90625 321.609375 462.898438 306.738281 462.910156 291.871094 C 462.914063 285.332031 460.496094 278.75 454.492188 277.960938 C 452.554688 277.703125 435.40625 277.902344 431.929688 277.902344 C 423.800781 277.902344 419.519531 277.914063 413.378906 281.539063 C 384.734375 298.472656 389.621094 368.296875 429.878906 361.59375 C 432.925781 361.085938 435.480469 359.898438 437.800781 358.410156 C 440.414063 356.730469 441.757813 355.019531 443.785156 352.84375 C 444.351563 363.101563 441.636719 370.746094 433.089844 373.335938 C 416.480469 378.367188 405.085938 358.777344 397.738281 372.15625 C 395.226563 376.738281 396.5625 380.871094 399.320313 383.839844 C 403.085938 387.890625 409.261719 390.152344 415.113281 391.648438 C 416.589844 392.023438 420.746094 392.644531 421.625 393.21875 "/>
<path style=" stroke:none;fill-rule:evenodd;fill:rgb(1.599121%,1.599121%,1.998901%);fill-opacity:1;" d="M 339.878906 324.34375 C 338.152344 313.9375 342.84375 300.929688 350.746094 298.570313 C 353.164063 297.851563 356.671875 298.132813 359.445313 298.132813 C 370.21875 298.132813 369.121094 297.238281 369.121094 315.8125 C 369.121094 343.742188 371.042969 341.898438 358.789063 341.890625 C 351.703125 341.886719 348.839844 342.222656 344.957031 337.527344 C 342.023438 333.984375 340.78125 329.78125 339.878906 324.34375 Z M 369.941406 352.734375 C 371.191406 355.023438 372.476563 363.078125 381.621094 360.933594 C 387.382813 359.582031 388.257813 354.058594 388.269531 347.636719 C 388.285156 340.003906 388.675781 293.296875 388.097656 287.816406 C 387.378906 281 385.199219 277.875 378.144531 277.898438 C 371.476563 277.917969 364.804688 277.902344 358.132813 277.902344 C 351.234375 277.902344 346.246094 277.667969 340.660156 280.617188 C 312.761719 295.363281 314.46875 347.894531 341.089844 359.769531 C 346.0625 361.988281 351.980469 362.972656 357.898438 361.230469 C 360.566406 360.445313 362.746094 359.066406 364.585938 357.671875 C 365.570313 356.921875 366.292969 356.238281 367.160156 355.347656 C 368.949219 353.511719 368.578125 353.273438 369.941406 352.734375 "/>
<path style=" stroke:none;fill-rule:evenodd;fill:rgb(1.599121%,1.599121%,1.998901%);fill-opacity:1;" d="M 771.101563 298.371094 C 773.648438 297.769531 777.101563 298.132813 779.917969 298.132813 C 789.46875 298.132813 788.332031 297.71875 788.332031 317.125 C 788.332031 344.699219 790.164063 341.867188 776.640625 341.863281 C 769.503906 341.863281 766.679688 341.140625 763.453125 336.554688 C 756.105469 326.109375 757.25 301.648438 771.101563 298.371094 Z M 807.140625 354.703125 L 807.140625 285 C 806.78125 283.378906 806.351563 282.132813 804.820313 280.429688 C 801.351563 276.570313 793.546875 277.902344 787.132813 277.902344 C 778.785156 277.902344 768.5625 276.90625 761.875 279.746094 C 749.628906 284.945313 742.136719 297.671875 740.210938 312.574219 C 737.113281 336.496094 749.207031 362.828125 771.726563 362.128906 C 775.828125 362.003906 779.34375 360.675781 782.054688 358.960938 C 784.183594 357.613281 786.019531 355.988281 787.484375 354.214844 C 788.101563 353.472656 788.378906 353.070313 789.167969 352.5 L 796.960938 361.125 C 797.675781 361.488281 803.445313 361.5625 805.753906 357.402344 C 806.277344 356.457031 806.457031 355.441406 807.140625 354.703125 "/>
<path style=" stroke:none;fill-rule:evenodd;fill:rgb(1.599121%,1.599121%,1.998901%);fill-opacity:1;" d="M 559.03125 312.675781 C 558.71875 308.839844 561.6875 303.421875 563.386719 301.320313 C 568.886719 294.511719 579 294.292969 584.75 301.40625 C 586.6875 303.800781 589.078125 309.019531 588.863281 312.660156 Z M 559.511719 327.316406 C 571.667969 327.074219 585.789063 327.230469 598.214844 327.292969 C 602.722656 327.316406 605.683594 326.792969 607.207031 323.128906 C 609.761719 316.984375 606.867188 306.585938 604.769531 301.363281 C 596.535156 280.851563 574.050781 270.382813 556.175781 283.925781 C 546.914063 290.941406 539.894531 304.046875 539.855469 319.75 C 539.765625 356.199219 569.667969 371.171875 595.796875 356.699219 C 612.261719 347.578125 606.191406 336.300781 600.523438 334.484375 C 596.984375 333.351563 593.242188 336.3125 591.1875 337.613281 C 585.5625 341.175781 579.636719 344.679688 571.070313 342.03125 C 564.148438 339.890625 559.1875 333.03125 559.511719 327.316406 "/>
<path style=" stroke:none;fill-rule:evenodd;fill:rgb(1.599121%,1.599121%,1.998901%);fill-opacity:1;" d="M 471.125 348.941406 C 471.125 364.222656 487.183594 364.863281 489.726563 353.007813 C 490.6875 348.523438 490.210938 321.519531 490.210938 314.828125 C 490.210938 309.246094 489.023438 299.359375 493.050781 298.289063 C 494.238281 297.972656 501.195313 298.066406 502.777344 298.152344 C 512.257813 298.667969 514.609375 306.125 514.59375 315.15625 C 514.582031 321.847656 514.128906 348.609375 515.066406 353.097656 C 517.511719 364.804688 533.636719 364.292969 533.703125 348.945313 C 533.730469 342.496094 533.695313 336.039063 533.695313 329.589844 C 533.695313 318.015625 535.003906 302.914063 531.128906 293.339844 C 527.632813 284.691406 519.65625 277.976563 508.019531 277.976563 L 481.128906 277.976563 C 474.894531 278.304688 471.210938 282.03125 471.125 290.558594 L 471.125 348.941406 "/>
<path style=" stroke:none;fill-rule:evenodd;fill:rgb(1.599121%,1.599121%,1.998901%);fill-opacity:1;" d="M 638.074219 278.191406 C 630.601563 279.277344 625.1875 281.003906 620.296875 287.375 C 616.476563 292.359375 613.941406 300.546875 615.765625 308.714844 C 617.382813 315.941406 622.164063 320.417969 627.753906 323.6875 C 632.871094 326.683594 641.285156 329.21875 645.703125 332.621094 C 648.648438 334.890625 649.226563 339.730469 646.132813 341.753906 C 643.3125 343.59375 638.371094 343.097656 635.148438 341.863281 C 629.902344 339.847656 622.503906 331.921875 616.488281 337.351563 C 610.960938 342.34375 611.730469 349.8125 618.621094 355.113281 C 623.371094 358.769531 630.976563 361.824219 638.546875 362.121094 C 654.195313 362.738281 666.785156 351.996094 666.488281 336.140625 C 666.007813 310.632813 631.691406 313.921875 633.644531 301.730469 C 634.253906 297.910156 638.320313 296.460938 642.273438 297.371094 C 650.632813 299.292969 655.785156 306.671875 661.457031 301.640625 C 663.742188 299.613281 665.332031 295.894531 664.589844 291.675781 C 662.8125 281.605469 647.320313 276.851563 638.074219 278.191406 "/>
<path style=" stroke:none;fill-rule:evenodd;fill:rgb(1.599121%,1.599121%,1.998901%);fill-opacity:1;" d="M 712.226563 278.980469 C 708.324219 279.09375 705.796875 278.664063 703.203125 280.738281 C 697.554688 285.25 700.121094 295.148438 702.886719 296.433594 L 712.292969 298.15625 C 713.269531 309.019531 710.902344 348.773438 713.335938 354.882813 C 716.53125 362.914063 726.652344 363.605469 730.246094 355.34375 C 732.242188 350.746094 731.382813 333.730469 731.382813 327.292969 C 731.382813 308.050781 731.371094 288.808594 731.382813 269.570313 C 731.386719 264.5625 731.171875 260.890625 728.671875 257.847656 C 726.527344 255.238281 722.183594 253.507813 718.019531 255.535156 C 709.605469 259.632813 713.78125 270.125 712.226563 278.980469 "/>
<path style=" stroke:none;fill-rule:evenodd;fill:rgb(1.599121%,1.599121%,1.998901%);fill-opacity:1;" d="M 682.210938 279.308594 C 674.609375 281.039063 674.675781 289.035156 674.675781 297.121094 L 674.675781 347.628906 C 674.65625 355.875 678.601563 362.785156 686.28125 360.949219 C 693.949219 359.117188 693.792969 351.34375 693.792969 343.035156 L 693.796875 292.527344 C 693.800781 288.25 693.246094 285.199219 691.230469 282.46875 C 689.527344 280.160156 686.414063 278.347656 682.210938 279.308594 "/>
<path style=" stroke:none;fill-rule:evenodd;fill:rgb(1.599121%,1.599121%,1.998901%);fill-opacity:1;" d="M 681.914063 255.054688 C 669.390625 259.003906 674.886719 279.429688 686.558594 276.238281 C 691.167969 274.976563 694.828125 269.160156 693.621094 263.070313 C 692.65625 258.183594 687.851563 253.1875 681.914063 255.054688 "/>
<path style=" stroke:none;fill-rule:evenodd;fill:rgb(79.598999%,15.299988%,15.299988%);fill-opacity:1;" d="M 152.113281 373.519531 C 142.984375 367.761719 135.40625 360.699219 128.667969 350.84375 C 135.300781 309.980469 148.449219 275.277344 167.878906 246.042969 C 136.15625 282.738281 115.527344 324.878906 104.96875 373.519531 C 95.835938 367.761719 88.261719 360.699219 81.523438 350.84375 C 87.542969 313.726563 98.941406 281.695313 115.546875 254.222656 C 86.957031 289.34375 68.121094 329.332031 58.195313 375.070313 C 49.066406 369.3125 41.488281 362.25 34.75 352.394531 C 44.945313 289.554688 70.546875 241.289063 110.722656 205.054688 C 122.652344 209.035156 132.683594 213.597656 141.234375 219.710938 C 146.359375 214.0625 151.777344 208.660156 157.496094 203.507813 C 169.929688 207.652344 180.296875 212.433594 189.082031 218.945313 C 194 213.574219 199.1875 208.429688 204.644531 203.507813 C 218.460938 208.113281 229.730469 213.503906 239.105469 221.1875 C 193.496094 263.390625 165.140625 313.507813 152.113281 373.519531 "/>
</g>
</svg>
